# xmcd
#
# Track frame offsets:
#	150
#	15085
#	30136
#	49235
#	64373
#	80985
#	95027
#	109870
#	124666
#	138171
#
# Disc length: 2034 seconds
#
# Revision: 3
# Processed by: cddbd v1.5.1PL0 Copyright (c) Steve Scherf et al.
# Submitted via: audiograbber 1.80
#
DISCID=7e07f00a
DTITLE=Sherrié Austin - Followin' A Feelin'
DYEAR=1900
DGENRE=
TTITLE0=Followin' A Feelin'
TTITLE1=Jolene
TTITLE2=Goin', Goin', Gone
TTITLE3=Somethin' Missin' In The Kissin'
TTITLE4=In The Meantime
TTITLE5=My Brilliant Mistake
TTITLE6=In Our Own Sweet Time
TTITLE7=Love Melts Even The Coldest Hearts
TTITLE8=Back Where I Belong
TTITLE9=Time, Love and Money
EXTD=
EXTT0=
EXTT1=
EXTT2=
EXTT3=
EXTT4=
EXTT5=
EXTT6=
EXTT7=
EXTT8=
EXTT9=
PLAYORDER=
